<?xml version="1.0" encoding="utf-8"?>
<!-- Generator: Adobe Illustrator 27.3.1, SVG Export Plug-In . SVG Version: 6.00 Build 0)  -->
<svg version="1.1" id="katman_1" xmlns="http://www.w3.org/2000/svg" xmlns:xlink="http://www.w3.org/1999/xlink" x="0px" y="0px"
	 viewBox="0 0 200 200" style="enable-background:new 0 0 200 200;" xml:space="preserve">
<style type="text/css">
	.st0{fill:#FF7BAC;}
	.st1{fill:#29ABE2;}
</style>
<g>
	<g>
		<g>
			<path class="st0" d="M43.5,145.6h15.2v-30.3c-5,3.9-10.1,7.5-15.2,10.1V145.6z"/>
		</g>
		<g>
			<path class="st1" d="M85,54.4H69.8v29.4c4.9-3.7,10-7.1,15.2-9.5V54.4z"/>
		</g>
		<g>
			<path class="st1" d="M102.9,73.4c-0.9-0.1-1.9-0.2-2.8-0.2c-0.4,0-0.8,0-1.2,0c-1.5,0.1-2.9,0.2-4.2,0.5c0,0,0,0,0,0
				c-3.2,0.7-6.5,1.9-9.7,3.5c-5.2,2.6-10.2,6.1-15.2,10c-3.8,3-7.5,6.1-11.1,9.1c-8.3,6.9-16,13.3-22.9,15.3c0,0,0,0-0.1,0
				c-1,0.3-2,0.5-3,0.6c-0.1,0-0.3,0-0.4,0c-0.1,0-0.2,0-0.3,0c-0.2,0-0.4,0-0.6,0c-1,0-1.9-0.1-2.7-0.3c-5.5-1.1-9.3-5.5-9.3-12.1
				c0-7.6,5.1-12.3,12-12.3c7,0,12,4.8,12,12.3c0,2-0.4,3.8-1,5.4c4.9-3.1,10.2-7.5,15.6-12.1c0.2-0.2,0.4-0.3,0.5-0.5V74.7H43.5
				v4.8c-3.3-3.8-8.3-6.2-15.1-6.2C15.1,73.3,4.2,84.9,4.2,100c0,14,9.4,25.1,21.4,26.6c0.9,0.1,1.8,0.2,2.8,0.2c0.2,0,0.4,0,0.6,0
				c0.2,0,0.4,0,0.5,0c3-0.1,5.6-0.7,7.9-1.7c2-0.7,4.1-1.7,6.1-2.8c5.1-2.7,10.2-6.5,15.2-10.5c3.8-3,7.5-6.2,11.1-9.2
				c9.2-7.6,18-14.1,25.8-14.8c0.1,0,0.2,0,0.2,0c0.2,0,0.3,0,0.5,0c0.2,0,0.4,0,0.7,0c1.4,0,2.7,0.2,4,0.6
				c4.9,1.5,8.1,5.7,8.1,11.8c0,7.6-5.1,12.4-12,12.4c-7,0-12-4.8-12-12.4c0-2.3,0.5-4.4,1.3-6.1c-5.2,2.9-10.7,7.4-16.5,12.2v19.2
				H85v-4.8c3.3,3.8,8.3,6.2,15.1,6.2c13.3,0,24.2-11.6,24.2-26.7C124.3,86,114.8,75,102.9,73.4z"/>
		</g>
		<g>
			<path class="st1" d="M134.3,127.1c-7.8,0-14.2-2.5-19.2-7.5c-5-5-7.5-11.4-7.5-19.1c0-7.7,2.5-14.1,7.5-19.1
				c5-5,11.4-7.5,19.2-7.5c7.8,0,14.1,2.5,19.1,7.5c5,5,7.5,11.4,7.5,19.1c0,7.8-2.5,14.2-7.5,19.2
				C148.4,124.6,142,127.1,134.3,127.1z M134.3,112.7c2.9,0,5.2-1.1,7.1-3.3c1.8-2.2,2.8-5.2,2.8-9.1c0-3.8-0.9-6.8-2.8-8.9
				c-1.8-2.2-4.2-3.3-7.1-3.3c-2.9,0-5.3,1.1-7.2,3.3c-1.9,2.2-2.8,5.2-2.8,8.9c0,3.8,0.9,6.8,2.8,9
				C129,111.6,131.4,112.7,134.3,112.7z"/>
		</g>
		<g>
			<path class="st1" d="M182.5,117.1l2.7,8c-2.8,2-6.7,3-11.5,3c-6.1,0-10.9-1.6-14.2-5c-3.3-3.3-5-8.2-5-14.7V91.1h-6.9V77.6h18.1
				l-11.2-5.1v-8.3h12.2c0.8,0,1.6,0.2,2.2,0.7c0.7,0.4,1.2,1,1.6,1.8s0.6,1.5,0.6,2.4v8.6h10.9v13.5h-10.9v17
				c0,1.9,0.5,3.4,1.4,4.4c0.9,1,2.1,1.5,3.6,1.5c0.5,0,1,0,1.4-0.1c1.2-0.2,2.2,0,3.2,0.6C181.5,115.1,182.1,115.9,182.5,117.1z"/>
		</g>
		<g>
			<path class="st1" d="M172.4,77.4"/>
		</g>
		<g>
			<path class="st1" d="M168.4,60.2"/>
		</g>
		<g>
			<polygon class="st1" points="154.4,72.5 154.4,54.6 170.9,54.6 170.9,77.6 165.6,77.6 			"/>
		</g>
		<g>
			<polyline class="st1" points="154.4,72.5 154.4,77.6 165.6,77.6 			"/>
		</g>
	</g>
	<g>
		<path class="st0" d="M191,66.3c0,5-3.9,8.8-8.9,8.8c-5,0-9-3.9-9-8.8c0-4.8,4-8.7,9-8.7C187.1,57.6,191,61.5,191,66.3z
			 M175.3,66.3c0,3.9,2.9,7,6.8,7c3.8,0,6.7-3.1,6.7-6.9c0-3.9-2.8-7-6.7-7C178.2,59.4,175.3,62.5,175.3,66.3z M180.7,70.9h-2v-8.7
			c0.8-0.2,1.9-0.3,3.4-0.3c1.7,0,2.4,0.3,3,0.6c0.5,0.4,0.9,1.1,0.9,1.9c0,1-0.7,1.7-1.8,2v0.1c0.9,0.3,1.3,1,1.6,2.1
			c0.3,1.3,0.4,1.9,0.6,2.2h-2.2c-0.3-0.3-0.4-1.1-0.7-2.1c-0.2-1-0.7-1.4-1.8-1.4h-1V70.9z M180.8,66h1c1.1,0,2-0.4,2-1.3
			c0-0.8-0.6-1.3-1.9-1.3c-0.5,0-0.9,0.1-1.1,0.1V66z"/>
	</g>
	<g>
		<path class="st1" d="M72.8,133.9v2.2h4.3v-2.2c0-0.3,0.1-0.5,0.3-0.7c0.2-0.2,0.4-0.2,0.7-0.2c0.3,0,0.5,0.1,0.7,0.2
			s0.3,0.4,0.3,0.7v6c0,0.3-0.1,0.6-0.3,0.7c-0.2,0.2-0.4,0.2-0.7,0.2c-0.3,0-0.5-0.1-0.7-0.2c-0.2-0.2-0.3-0.4-0.3-0.7v-2.6h-4.3
			v2.6c0,0.3-0.1,0.6-0.3,0.7c-0.2,0.2-0.4,0.2-0.7,0.2c-0.3,0-0.5-0.1-0.7-0.2c-0.2-0.2-0.3-0.4-0.3-0.7v-6c0-0.3,0.1-0.5,0.3-0.7
			s0.4-0.2,0.7-0.2c0.3,0,0.5,0.1,0.7,0.2S72.8,133.6,72.8,133.9z"/>
		<path class="st1" d="M82.8,141l0.2-0.3l-2.2-4.4c-0.1-0.3-0.2-0.4-0.2-0.6c0-0.1,0-0.2,0.1-0.3c0.1-0.1,0.2-0.2,0.3-0.2
			s0.3-0.1,0.4-0.1c0.3,0,0.5,0.1,0.6,0.2c0.1,0.1,0.3,0.3,0.4,0.6l1.5,3.5l1.5-3.2c0.1-0.3,0.2-0.5,0.3-0.6
			c0.1-0.1,0.2-0.2,0.3-0.3s0.3-0.1,0.4-0.1c0.1,0,0.3,0,0.4,0.1c0.1,0.1,0.2,0.1,0.3,0.2c0.1,0.1,0.1,0.2,0.1,0.3
			c0,0.1,0,0.2-0.1,0.3c0,0.1-0.1,0.2-0.1,0.4l-2.4,4.8c-0.2,0.4-0.4,0.8-0.6,1c-0.2,0.2-0.5,0.4-0.8,0.6s-0.8,0.2-1.3,0.2
			c-0.5,0-0.9,0-1.2-0.1c-0.3-0.1-0.4-0.3-0.4-0.5c0-0.2,0.1-0.3,0.2-0.4c0.1-0.1,0.3-0.1,0.6-0.1c0.1,0,0.2,0,0.3,0
			c0.1,0,0.2,0,0.3,0c0.2,0,0.4,0,0.5-0.1c0.1,0,0.2-0.1,0.3-0.3C82.6,141.4,82.7,141.3,82.8,141z"/>
		<path class="st1" d="M90.2,135.9v0.2c0.3-0.3,0.7-0.6,1.1-0.7c0.4-0.2,0.8-0.2,1.3-0.2c0.6,0,1.1,0.1,1.5,0.3
			c0.5,0.2,0.8,0.6,1.1,1c0.3,0.4,0.4,0.9,0.4,1.5c0,0.4-0.1,0.8-0.2,1.2c-0.2,0.4-0.4,0.7-0.7,0.9c-0.3,0.2-0.6,0.4-1,0.6
			c-0.4,0.1-0.8,0.2-1.2,0.2c-0.5,0-1-0.1-1.3-0.2c-0.4-0.2-0.7-0.4-1-0.7v2.1c0,0.6-0.3,0.9-0.9,0.9c-0.3,0-0.6-0.1-0.7-0.2
			s-0.2-0.4-0.2-0.7v-6.1c0-0.3,0.1-0.5,0.2-0.6s0.4-0.2,0.6-0.2c0.3,0,0.5,0.1,0.6,0.2C90.1,135.4,90.2,135.6,90.2,135.9z
			 M93.8,137.9c0-0.4-0.1-0.7-0.2-1c-0.1-0.3-0.4-0.5-0.6-0.6s-0.5-0.2-0.9-0.2c-0.5,0-0.9,0.2-1.3,0.5s-0.5,0.8-0.5,1.4
			c0,0.6,0.2,1,0.5,1.3s0.8,0.5,1.3,0.5c0.3,0,0.6-0.1,0.8-0.2c0.3-0.1,0.5-0.3,0.6-0.6C93.7,138.7,93.8,138.3,93.8,137.9z"/>
		<path class="st1" d="M102.1,138.3h-3.6c0,0.3,0.1,0.6,0.2,0.9s0.4,0.4,0.6,0.6c0.3,0.1,0.6,0.2,0.9,0.2c0.2,0,0.4,0,0.6-0.1
			c0.2,0,0.4-0.1,0.5-0.2c0.2-0.1,0.3-0.2,0.5-0.3s0.3-0.2,0.6-0.4c0.1-0.1,0.2-0.1,0.4-0.1c0.2,0,0.3,0,0.5,0.1
			c0.1,0.1,0.2,0.2,0.2,0.3c0,0.1-0.1,0.3-0.2,0.5c-0.1,0.2-0.3,0.3-0.6,0.5c-0.3,0.2-0.6,0.3-1,0.4c-0.4,0.1-0.8,0.2-1.4,0.2
			c-1.2,0-2.1-0.3-2.7-0.8c-0.6-0.5-1-1.2-1-2.1c0-0.4,0.1-0.8,0.2-1.2s0.4-0.7,0.7-0.9c0.3-0.3,0.7-0.5,1.1-0.6
			c0.4-0.1,0.9-0.2,1.5-0.2c0.7,0,1.3,0.1,1.8,0.4c0.5,0.2,0.9,0.5,1.1,0.9c0.3,0.4,0.4,0.7,0.4,1.1c0,0.4-0.1,0.6-0.4,0.7
			C103,138.3,102.6,138.3,102.1,138.3z M98.6,137.5h3.3c0-0.5-0.2-0.8-0.5-1.1s-0.7-0.4-1.2-0.4c-0.5,0-0.8,0.1-1.1,0.4
			C98.8,136.7,98.6,137,98.6,137.5z"/>
		<path class="st1" d="M107,138.8v1.2c0,0.3-0.1,0.5-0.3,0.6c-0.2,0.1-0.4,0.2-0.7,0.2c-0.3,0-0.5-0.1-0.6-0.2
			c-0.2-0.1-0.3-0.4-0.3-0.6v-4c0-0.6,0.3-1,0.9-1c0.3,0,0.5,0.1,0.7,0.2c0.1,0.1,0.2,0.4,0.2,0.7c0.2-0.3,0.4-0.5,0.7-0.7
			s0.5-0.2,0.9-0.2s0.8,0.1,1.1,0.2s0.5,0.3,0.5,0.6c0,0.2-0.1,0.3-0.2,0.4c-0.2,0.1-0.3,0.2-0.5,0.2c-0.1,0-0.2,0-0.5-0.1
			c-0.3-0.1-0.5-0.1-0.7-0.1c-0.3,0-0.5,0.1-0.7,0.2s-0.3,0.3-0.4,0.5c-0.1,0.2-0.2,0.5-0.2,0.8C107,138,107,138.4,107,138.8z"/>
		<path class="st1" d="M117.6,139.9l-0.5-1h-4l-0.5,1c-0.2,0.4-0.3,0.6-0.5,0.8c-0.1,0.1-0.3,0.2-0.6,0.2c-0.2,0-0.5-0.1-0.7-0.2
			c-0.2-0.1-0.3-0.3-0.3-0.5c0-0.1,0-0.2,0.1-0.3c0-0.1,0.1-0.3,0.2-0.5l2.5-5c0.1-0.1,0.2-0.3,0.3-0.5c0.1-0.2,0.2-0.4,0.3-0.5
			s0.3-0.2,0.4-0.3c0.2-0.1,0.4-0.1,0.7-0.1c0.3,0,0.5,0,0.7,0.1c0.2,0.1,0.3,0.2,0.4,0.3c0.1,0.1,0.2,0.3,0.3,0.4
			c0.1,0.1,0.2,0.3,0.3,0.6l2.6,4.9c0.2,0.4,0.3,0.6,0.3,0.8c0,0.2-0.1,0.3-0.3,0.5c-0.2,0.1-0.4,0.2-0.7,0.2c-0.2,0-0.3,0-0.4-0.1
			c-0.1,0-0.2-0.1-0.3-0.2c-0.1-0.1-0.2-0.2-0.2-0.3S117.6,140,117.6,139.9z M113.6,137.7h2.9l-1.5-3.1L113.6,137.7z"/>
		<path class="st1" d="M125.7,140.1v-0.2c-0.2,0.2-0.4,0.4-0.7,0.5c-0.2,0.1-0.5,0.3-0.8,0.3c-0.3,0.1-0.6,0.1-1,0.1
			c-0.4,0-0.8-0.1-1.2-0.2c-0.3-0.1-0.6-0.3-0.8-0.6c-0.2-0.3-0.3-0.7-0.3-1.3v-2.8c0-0.3,0.1-0.5,0.2-0.6c0.2-0.1,0.4-0.2,0.7-0.2
			c0.3,0,0.5,0.1,0.7,0.2c0.2,0.1,0.3,0.4,0.3,0.6v2.3c0,0.3,0,0.6,0.1,0.8s0.2,0.4,0.4,0.5c0.2,0.1,0.4,0.2,0.8,0.2
			c0.3,0,0.6-0.1,0.9-0.2c0.3-0.1,0.5-0.3,0.6-0.6c0.1-0.2,0.2-0.6,0.2-1.3v-1.7c0-0.3,0.1-0.5,0.3-0.6c0.2-0.1,0.4-0.2,0.7-0.2
			s0.5,0.1,0.7,0.2c0.2,0.1,0.2,0.4,0.2,0.6v4.1c0,0.3-0.1,0.5-0.2,0.6c-0.2,0.1-0.4,0.2-0.6,0.2s-0.5-0.1-0.6-0.2
			C125.8,140.5,125.7,140.3,125.7,140.1z"/>
		<path class="st1" d="M129.4,135.2h0.2v-0.9c0-0.2,0-0.4,0-0.5c0-0.1,0.1-0.2,0.1-0.3c0.1-0.1,0.2-0.2,0.3-0.2
			c0.1-0.1,0.3-0.1,0.4-0.1c0.2,0,0.4,0.1,0.6,0.2c0.1,0.1,0.2,0.2,0.2,0.3s0,0.3,0,0.6v1h0.7c0.3,0,0.5,0,0.6,0.1
			c0.1,0.1,0.2,0.2,0.2,0.4c0,0.2-0.1,0.3-0.3,0.4c-0.2,0.1-0.5,0.1-0.8,0.1h-0.3v2.6c0,0.2,0,0.4,0,0.5c0,0.1,0.1,0.2,0.2,0.3
			c0.1,0.1,0.2,0.1,0.4,0.1c0.1,0,0.3,0,0.4,0c0.2,0,0.3,0,0.4,0c0.1,0,0.3,0,0.4,0.1s0.2,0.2,0.2,0.3c0,0.2-0.2,0.4-0.5,0.5
			s-0.8,0.2-1.4,0.2c-0.6,0-1-0.1-1.3-0.2c-0.3-0.1-0.5-0.4-0.6-0.6c-0.1-0.3-0.1-0.6-0.1-1.1v-2.7h-0.2c-0.3,0-0.5,0-0.6-0.1
			c-0.1-0.1-0.2-0.2-0.2-0.4c0-0.1,0.1-0.3,0.2-0.4C128.9,135.3,129.1,135.2,129.4,135.2z"/>
		<path class="st1" d="M140.9,138c0,0.4-0.1,0.8-0.3,1.2s-0.4,0.7-0.7,0.9c-0.3,0.3-0.7,0.5-1.1,0.6c-0.4,0.1-0.9,0.2-1.5,0.2
			c-0.6,0-1-0.1-1.5-0.2s-0.8-0.3-1.1-0.6c-0.3-0.3-0.6-0.6-0.7-0.9c-0.2-0.4-0.3-0.7-0.3-1.2c0-0.4,0.1-0.8,0.3-1.2
			c0.2-0.4,0.4-0.7,0.7-0.9c0.3-0.3,0.7-0.4,1.1-0.6c0.4-0.1,0.9-0.2,1.5-0.2c0.6,0,1.1,0.1,1.5,0.2c0.5,0.1,0.8,0.3,1.2,0.6
			s0.6,0.6,0.7,0.9S140.9,137.5,140.9,138z M139.1,138c0-0.6-0.2-1-0.5-1.4c-0.3-0.3-0.8-0.5-1.3-0.5c-0.4,0-0.7,0.1-0.9,0.2
			c-0.3,0.1-0.5,0.4-0.6,0.6c-0.1,0.3-0.2,0.6-0.2,1c0,0.4,0.1,0.7,0.2,1s0.4,0.5,0.6,0.6c0.3,0.1,0.6,0.2,1,0.2
			c0.6,0,1-0.2,1.3-0.5C138.9,139,139.1,138.5,139.1,138z"/>
		<path class="st1" d="M148.4,138.1v1.9c0,0.3-0.1,0.5-0.3,0.7c-0.2,0.1-0.4,0.2-0.7,0.2c-0.3,0-0.5-0.1-0.7-0.2
			c-0.2-0.1-0.3-0.4-0.3-0.7v-2.3c0-0.4,0-0.6,0-0.8c0-0.2-0.1-0.4-0.3-0.5c-0.1-0.1-0.4-0.2-0.7-0.2c-0.6,0-1,0.2-1.2,0.5
			c-0.2,0.3-0.3,0.8-0.3,1.4v1.9c0,0.3-0.1,0.5-0.3,0.7c-0.2,0.2-0.4,0.2-0.7,0.2c-0.3,0-0.5-0.1-0.7-0.2c-0.2-0.2-0.3-0.4-0.3-0.7
			v-4.1c0-0.3,0.1-0.5,0.2-0.6s0.4-0.2,0.6-0.2c0.2,0,0.5,0.1,0.6,0.2s0.2,0.3,0.2,0.5v0.1c0.3-0.3,0.7-0.5,1-0.6s0.8-0.2,1.2-0.2
			c0.5,0,0.9,0.1,1.2,0.2s0.6,0.4,0.8,0.6c0.3-0.3,0.6-0.5,1-0.6s0.7-0.2,1.2-0.2c0.5,0,0.9,0.1,1.3,0.2s0.6,0.4,0.8,0.7
			c0.2,0.3,0.2,0.7,0.2,1.2v2.8c0,0.3-0.1,0.5-0.3,0.7c-0.2,0.1-0.4,0.2-0.7,0.2c-0.3,0-0.5-0.1-0.7-0.2c-0.2-0.2-0.3-0.4-0.3-0.7
			v-2.4c0-0.3,0-0.5,0-0.7s-0.1-0.3-0.3-0.5c-0.1-0.1-0.4-0.2-0.7-0.2c-0.2,0-0.5,0.1-0.7,0.2c-0.2,0.1-0.4,0.3-0.5,0.4
			C148.5,137,148.4,137.5,148.4,138.1z"/>
		<path class="st1" d="M159.1,140.1c-0.4,0.3-0.9,0.5-1.3,0.6c-0.4,0.1-0.9,0.2-1.4,0.2c-0.5,0-0.9-0.1-1.2-0.2
			c-0.4-0.1-0.6-0.3-0.8-0.6s-0.3-0.5-0.3-0.8c0-0.4,0.2-0.7,0.5-1c0.3-0.3,0.7-0.5,1.3-0.6c0.1,0,0.4-0.1,0.9-0.1
			c0.5-0.1,0.9-0.1,1.2-0.2s0.7-0.1,1.1-0.2c0-0.4-0.1-0.6-0.3-0.8s-0.5-0.3-1.1-0.3c-0.5,0-0.8,0-1,0.2c-0.2,0.1-0.4,0.3-0.6,0.5
			s-0.3,0.3-0.4,0.4s-0.2,0.1-0.4,0.1c-0.2,0-0.4-0.1-0.5-0.2c-0.1-0.1-0.2-0.2-0.2-0.4c0-0.2,0.1-0.5,0.3-0.7s0.6-0.4,1.1-0.6
			c0.5-0.2,1.1-0.2,1.8-0.2c0.8,0,1.4,0.1,1.9,0.2s0.8,0.4,1,0.7c0.2,0.3,0.3,0.7,0.3,1.3c0,0.3,0,0.6,0,0.8c0,0.2,0,0.5,0,0.8
			c0,0.3,0.1,0.5,0.2,0.8c0.1,0.3,0.2,0.5,0.2,0.6c0,0.1-0.1,0.3-0.3,0.4c-0.2,0.1-0.4,0.2-0.6,0.2c-0.2,0-0.4-0.1-0.6-0.2
			S159.3,140.3,159.1,140.1z M158.9,138c-0.3,0.1-0.7,0.2-1.2,0.2c-0.5,0.1-0.9,0.1-1.1,0.2c-0.2,0-0.4,0.1-0.6,0.2
			c-0.2,0.1-0.3,0.3-0.3,0.5c0,0.2,0.1,0.4,0.3,0.5c0.2,0.2,0.5,0.2,0.8,0.2c0.4,0,0.7-0.1,1-0.2s0.5-0.3,0.7-0.5
			c0.2-0.2,0.2-0.6,0.2-1.1V138z"/>
		<path class="st1" d="M162.7,135.2h0.2v-0.9c0-0.2,0-0.4,0-0.5c0-0.1,0.1-0.2,0.1-0.3c0.1-0.1,0.2-0.2,0.3-0.2
			c0.1-0.1,0.3-0.1,0.4-0.1c0.2,0,0.4,0.1,0.6,0.2c0.1,0.1,0.2,0.2,0.2,0.3s0,0.3,0,0.6v1h0.7c0.3,0,0.5,0,0.6,0.1
			c0.1,0.1,0.2,0.2,0.2,0.4c0,0.2-0.1,0.3-0.3,0.4c-0.2,0.1-0.5,0.1-0.8,0.1h-0.3v2.6c0,0.2,0,0.4,0,0.5c0,0.1,0.1,0.2,0.2,0.3
			c0.1,0.1,0.2,0.1,0.4,0.1c0.1,0,0.3,0,0.4,0c0.2,0,0.3,0,0.4,0c0.1,0,0.3,0,0.4,0.1s0.2,0.2,0.2,0.3c0,0.2-0.2,0.4-0.5,0.5
			s-0.8,0.2-1.4,0.2c-0.6,0-1-0.1-1.3-0.2c-0.3-0.1-0.5-0.4-0.6-0.6c-0.1-0.3-0.1-0.6-0.1-1.1v-2.7h-0.2c-0.3,0-0.5,0-0.6-0.1
			c-0.1-0.1-0.2-0.2-0.2-0.4c0-0.1,0.1-0.3,0.2-0.4C162.2,135.3,162.4,135.2,162.7,135.2z"/>
		<path class="st1" d="M168.3,134.4c-0.3,0-0.5-0.1-0.7-0.2c-0.2-0.1-0.3-0.3-0.3-0.5c0-0.2,0.1-0.4,0.3-0.5s0.4-0.2,0.6-0.2
			c0.2,0,0.4,0.1,0.6,0.2c0.2,0.1,0.3,0.3,0.3,0.5c0,0.2-0.1,0.4-0.3,0.5S168.6,134.4,168.3,134.4z M169.2,135.9v4.1
			c0,0.3-0.1,0.5-0.3,0.6c-0.2,0.1-0.4,0.2-0.7,0.2c-0.3,0-0.5-0.1-0.7-0.2c-0.2-0.1-0.2-0.4-0.2-0.6v-4.1c0-0.3,0.1-0.5,0.2-0.6
			c0.2-0.1,0.4-0.2,0.7-0.2c0.3,0,0.5,0.1,0.7,0.2C169.1,135.4,169.2,135.6,169.2,135.9z"/>
		<path class="st1" d="M177.9,138c0,0.4-0.1,0.8-0.3,1.2s-0.4,0.7-0.7,0.9c-0.3,0.3-0.7,0.5-1.1,0.6c-0.4,0.1-0.9,0.2-1.5,0.2
			c-0.6,0-1-0.1-1.5-0.2s-0.8-0.3-1.1-0.6c-0.3-0.3-0.6-0.6-0.7-0.9c-0.2-0.4-0.3-0.7-0.3-1.2c0-0.4,0.1-0.8,0.3-1.2
			c0.2-0.4,0.4-0.7,0.7-0.9c0.3-0.3,0.7-0.4,1.1-0.6c0.4-0.1,0.9-0.2,1.5-0.2c0.6,0,1.1,0.1,1.5,0.2c0.5,0.1,0.8,0.3,1.2,0.6
			s0.6,0.6,0.7,0.9S177.9,137.5,177.9,138z M176.1,138c0-0.6-0.2-1-0.5-1.4c-0.3-0.3-0.8-0.5-1.3-0.5c-0.4,0-0.7,0.1-0.9,0.2
			c-0.3,0.1-0.5,0.4-0.6,0.6c-0.1,0.3-0.2,0.6-0.2,1c0,0.4,0.1,0.7,0.2,1s0.4,0.5,0.6,0.6c0.3,0.1,0.6,0.2,1,0.2
			c0.6,0,1-0.2,1.3-0.5C175.9,139,176.1,138.5,176.1,138z"/>
		<path class="st1" d="M181,135.9v0.2c0.3-0.3,0.7-0.6,1.1-0.7s0.8-0.2,1.3-0.2c0.5,0,0.9,0.1,1.3,0.2s0.7,0.4,0.8,0.7
			c0.1,0.2,0.2,0.4,0.2,0.6c0,0.2,0.1,0.5,0.1,0.8v2.6c0,0.3-0.1,0.5-0.2,0.6c-0.2,0.1-0.4,0.2-0.7,0.2c-0.3,0-0.5-0.1-0.7-0.2
			c-0.2-0.1-0.3-0.4-0.3-0.6v-2.4c0-0.5-0.1-0.8-0.2-1.1s-0.5-0.4-1-0.4c-0.3,0-0.6,0.1-0.9,0.2s-0.5,0.4-0.6,0.6
			c-0.1,0.2-0.1,0.6-0.1,1.2v1.8c0,0.3-0.1,0.5-0.3,0.6c-0.2,0.1-0.4,0.2-0.7,0.2c-0.3,0-0.5-0.1-0.6-0.2c-0.2-0.1-0.3-0.4-0.3-0.6
			v-4.1c0-0.3,0.1-0.5,0.2-0.6s0.4-0.2,0.6-0.2c0.2,0,0.3,0,0.4,0.1c0.1,0.1,0.2,0.1,0.3,0.3S181,135.7,181,135.9z"/>
	</g>
</g>
</svg>
